<svg width="108.01mm" height="108mm" version="1.1" viewBox="0 0 108.01 108" xmlns="http://www.w3.org/2000/svg">
  <g transform="translate(-73.332 -169.28)">
    <g transform="matrix(.97785 0 0 .97785 58.556 153.35)" shape-rendering="auto" stroke-linecap="square" stroke-miterlimit="10" stroke-width=".67644" style="paint-order:normal">
      <path d="m69.902 16.633c-12.914 0.06454-25.723 4.8959-35.467 13.369-9.743 8.3802-16.359 20.289-18.316 32.988-2.0348 12.699 0.60792 26.068 7.3164 37.033 6.547 10.844 16.983 19.26 28.961 23.369 11.969 4.1768 25.399 4.0009 37.252-0.49414 11.906-4.4331 22.143-13.172 28.396-24.232 6.4078-11.183 8.6619-24.665 6.2324-37.326-2.3692-12.764-9.4638-24.58-19.627-32.664-9.7548-7.8529-22.223-12.174-34.748-12.043zm0 0.03125c12.517-0.13048 24.98 4.1889 34.729 12.037 10.157 8.0795 17.248 19.888 19.615 32.645 2.428 12.654 0.17541 26.129-6.2285 37.305-6.2494 11.054-16.482 19.788-28.381 24.219-11.846 4.4923-25.269 4.6664-37.23 0.49219-11.971-4.1069-22.4-12.518-28.943-23.355-6.7044-10.959-9.346-24.321-7.3125-37.012 1.9562-12.692 8.5696-24.594 18.307-32.969 9.738-8.468 22.539-13.297 35.445-13.361z" color="#000000" color-rendering="auto" dominant-baseline="auto" image-rendering="auto" solid-color="#000000" stop-color="#000000" stroke="#000" stroke-dasharray="0.676438, 0.676438" style="font-feature-settings:normal;font-variant-alternates:normal;font-variant-caps:normal;font-variant-east-asian:normal;font-variant-ligatures:normal;font-variant-numeric:normal;font-variant-position:normal;font-variation-settings:normal;inline-size:0;isolation:auto;mix-blend-mode:normal;paint-order:normal;shape-margin:0;shape-padding:0;text-decoration-color:#000000;text-decoration-line:none;text-decoration-style:solid;text-indent:0;text-orientation:mixed;text-transform:none;white-space:normal"/>
      <path d="m69.902 16.648c-12.91 0.064518-25.715 4.8942-35.455 13.365-9.7401 8.3777-16.355 20.284-18.312 32.979-2.0342 12.695 0.6071 26.06 7.3135 37.022 6.545 10.841 16.978 19.253 28.953 23.362 11.965 4.1755 25.391 4.0006 37.241-0.49305 11.903-4.4318 22.138-13.167 28.389-24.225 6.4059-11.179 8.6583-24.658 6.2296-37.316-2.3684-12.76-9.461-24.573-19.621-32.655-9.7519-7.8505-22.217-12.17-34.738-12.04z" color="#000000" color-rendering="auto" dominant-baseline="auto" fill="none" image-rendering="auto" solid-color="#000000" stop-color="#000000" stroke="#fff" stroke-dasharray="0.676438, 0.67643799999999998" stroke-linejoin="round" style="font-feature-settings:normal;font-variant-alternates:normal;font-variant-caps:normal;font-variant-east-asian:normal;font-variant-ligatures:normal;font-variant-numeric:normal;font-variant-position:normal;font-variation-settings:normal;inline-size:0;isolation:auto;mix-blend-mode:normal;paint-order:normal;shape-margin:0;shape-padding:0;text-decoration-color:#000000;text-decoration-line:none;text-decoration-style:solid;text-indent:0;text-orientation:mixed;text-transform:none;white-space:normal"/>
    </g>
    <circle cx="127.34" cy="223.28" r="38.748" fill="none" opacity=".993" stroke="#fff" stroke-dashoffset="2.6458" stroke-linecap="square" stroke-linejoin="round" stroke-miterlimit="10" stroke-width=".66146" style="paint-order:normal"/>
    <g transform="matrix(1.0529 .14036 -.13842 1.0383 63.829 139.56)">
      <g fill="#fff" stroke-width=".25083" aria-label="University of Hard Knocks">
        <path d="m26.205 53.618 3.8608 1.3585q0.80198 0.28657 1.1358 0.9694 0.33523 0.67893 0.09574 1.5588l-0.06218 0.20163q-0.32795 0.93204-1.0259 1.3088-0.69792 0.37675-1.582 0.07444l-3.8686-1.3612 0.26072-0.74095 3.8452 1.353q0.61616 0.21681 1.0787-0.0017 0.45866-0.2199 0.67958-0.84776 0.22367-0.63566 0.0024-1.0904-0.2199-0.45866-0.83606-0.67547l-3.8491-1.3544z"/>
        <path d="m28.662 51.943 0.51472 0.22757q-0.35003-0.74579 0.01732-1.4865 0.63-1.2704 2.0688-0.57067l2.6482 1.3133-0.33979 0.68519-2.6519-1.3151q-0.43517-0.21119-0.73992-0.11775-0.30292 0.08974-0.50679 0.50085-0.1653 0.33333-0.11242 0.67335 0.05288 0.34002 0.27198 0.62402l2.8556 1.4161-0.33979 0.68519-4.0074-1.9873z"/>
        <path d="m34.941 49.728-0.3944 0.65528-3.8325-2.3067 0.3944-0.65528zm-5.2754-2.2101q-0.15939-0.09593-0.21164-0.25766-0.05011-0.16527 0.06501-0.35654 0.11512-0.19127 0.28462-0.22436t0.32889 0.06285q0.15939 0.09593 0.20596 0.25907 0.04657 0.16313-0.06855 0.3544-0.11512 0.19127-0.28108 0.22649-0.16382 0.03168-0.32322-0.06425z"/>
        <path d="m35.584 46.877-2.1626-2.8902 0.45172-0.63754 2.7225 3.8949-0.337 0.47562-4.5867-1.2638 0.45172-0.63754z"/>
        <path d="m39.277 44.022q-0.59998 0.68354-1.4237 0.7196-0.82687 0.03333-1.5788-0.62665l-0.10564-0.09272q-0.50023-0.43908-0.72535-0.97223-0.2255-0.53899-0.14611-1.0744 0.07901-0.54124 0.43082-0.94204 0.57544-0.65558 1.3264-0.64002 0.75096 0.01556 1.5557 0.7219l0.23924 0.20999-1.999 2.2774q0.50803 0.42392 1.0583 0.41739 0.54993-0.01237 0.92628-0.44113 0.26726-0.30449 0.32843-0.62485 0.06117-0.32036-0.0048-0.65882l0.58159-0.1111q0.27847 0.99253-0.46332 1.8376zm-3.0765-2.5739q-0.30544 0.34799-0.25794 0.80775 0.0444 0.45704 0.45204 0.91386l1.4781-1.684-0.0435-0.03818q-0.45991-0.35968-0.88459-0.35839-0.4278-0.0014-0.74415 0.35897z"/>
        <path d="m39.965 37.818q-0.14562 0.0989-0.29221 0.23871-0.54447 0.5193-0.29667 1.1685l2.1913 2.2976-0.55345 0.52786-3.0873-3.2369 0.53849-0.51359 0.36564 0.36539q-0.14149-0.69343 0.35811-1.1699 0.16155-0.15408 0.28526-0.19209z"/>
        <path d="m44.393 37.531q-0.19372-0.24209-0.48361-0.22721-0.28925 0.0091-0.82187 0.27644-0.5294 0.26478-0.9058 0.34359-0.37317 0.07623-0.6521-0.0077-0.2757-0.08648-0.48234-0.34472-0.34353-0.42931-0.21964-1.0156 0.12712-0.58884 0.692-1.0409 0.59393-0.47526 1.2073-0.46307 0.61659 0.0096 0.99887 0.48734l-0.60039 0.48043q-0.1963-0.24532-0.54818-0.25496-0.34865-0.01222-0.66498 0.24091-0.32602 0.26088-0.39636 0.55014-0.07034 0.28926 0.11305 0.51844 0.17306 0.21627 0.43196 0.18912 0.2589-0.02715 0.78442-0.28353 0.52875-0.25897 0.91742-0.3423 0.38867-0.08333 0.67857 0.0077 0.29055 0.08519 0.51527 0.36602 0.37453 0.46805 0.22739 1.0517-0.14972 0.58045-0.74688 1.0583-0.41963 0.33578-0.86123 0.4456-0.44161 0.10981-0.8374-0.0076-0.39515-0.12327-0.64311-0.43315l0.59716-0.47785q0.25636 0.28728 0.62114 0.28659 0.36543-0.0065 0.73341-0.30096 0.33893-0.27121 0.4338-0.56951 0.09552-0.30411-0.08787-0.53329z"/>
        <path d="m47.25 36.96-0.63212 0.43054-2.5181-3.6971 0.63212-0.43054zm-3.8694-4.2122q-0.10472-0.15376-0.08461-0.32252 0.02353-0.17108 0.20804-0.29676 0.18451-0.12567 0.35233-0.08491 0.16782 0.04076 0.27254 0.19452 0.10473 0.15376 0.07887 0.32143-0.02585 0.16767-0.21037 0.29334-0.18451 0.12567-0.35 0.08833-0.16207-0.03967-0.2668-0.19343z"/>
        <path d="m46.306 30.992 0.55713 0.92887 0.71615-0.42954 0.30408 0.50698-0.71615 0.42954 1.4268 2.3789q0.13822 0.23044 0.30412 0.29003 0.16377 0.05604 0.39422-0.08218 0.11345-0.06805 0.28647-0.22967l0.31897 0.5318q-0.21628 0.22614-0.4609 0.37286-0.43962 0.26368-0.82246 0.13175-0.38284-0.13193-0.67629-0.62118l-1.4268-2.3789-0.69843 0.41891-0.30408-0.50698 0.69843-0.41891-0.55713-0.92887z"/>
        <path d="m51.473 33.233-0.55247-3.4672 0.73373-0.36287 0.67704 5.4257q0.12055 1.1856-0.69471 1.5888l-0.1352 0.05303-0.27952 0.07828-0.2749-0.55586 0.19262-0.07681q0.34834-0.17227 0.47139-0.40839 0.12676-0.23795 0.06765-0.67454l-0.04966-0.48277-3.3914-3.2577 0.74855-0.3702z"/>
        <path d="m55.349 30.268q-0.19623-0.62735-0.10834-1.205 0.09184-0.57884 0.44464-0.98808 0.35675-0.41047 0.92098-0.58696 0.87198-0.27275 1.5974 0.16309 0.72937 0.4346 1.0428 1.4368l0.01604 0.05129q0.195 0.62341 0.10982 1.1958-0.08247 0.56725-0.44193 0.9829-0.35552 0.41442-0.93158 0.5946-0.86804 0.27151-1.5974-0.16309-0.72543-0.43584-1.0364-1.4301zm0.76104-0.14275q0.22215 0.71021 0.68416 1.0378 0.46595 0.3264 1.0183 0.15362 0.55633-0.17402 0.74806-0.71047 0.1905-0.5404-0.0551-1.3256-0.21968-0.70232-0.69081-1.0314-0.46842-0.3343-1.0208-0.16152-0.54055 0.16908-0.73746 0.70282t0.05362 1.3347z"/>
        <path d="m61.227 30.956-0.80779-3.797-0.69146 0.1471-0.12302-0.57824 0.69146-0.14711-0.09549-0.44884q-0.14969-0.70359 0.14465-1.1677 0.29433-0.46415 0.98175-0.6104 0.25879-0.05506 0.52817-0.04051l0.0886 0.61515q-0.19779 4e-3 -0.41211 0.04963-0.36393 0.07742-0.51647 0.33389-0.1534 0.25242-0.0691 0.6487l0.09807 0.46098 0.93408-0.19872 0.12302 0.57824-0.93408 0.19872 0.80779 3.797z"/>
        <path d="m70.555 29.88-0.79688 0.04009-0.13979-2.7788-3.0306 0.15246 0.13979 2.7788-0.79275 0.03988-0.30242-6.0117 0.79275-0.03988 0.13002 2.5847 3.0306-0.15246-0.13002-2.5847 0.79688-0.04009z"/>
        <path d="m74.602 30.153q-0.05555-0.13708-0.07012-0.47828-0.57518 0.51036-1.3129 0.45221-0.65942-0.05198-1.0547-0.45636-0.39082-0.40818-0.34566-0.98104 0.0549-0.69651 0.61264-1.0382 0.56219-0.3455 1.5225-0.26981l0.74184 0.05847 0.02761-0.35032q0.03151-0.39977-0.18901-0.65353-0.2202-0.25788-0.68591-0.29459-0.40801-0.03216-0.70039 0.15214t-0.31544 0.47692l-0.76657-0.060419q0.02631-0.33383 0.28559-0.62441 0.26373-0.29438 0.68191-0.44389 0.42231-0.14918 0.90863-0.11085 0.77069 0.06075 1.177 0.48259 0.40665 0.41772 0.36986 1.0949l-0.16177 2.0524q-0.0484 0.61408 0.07962 0.9891l-0.0052 0.06594zm-1.2194-0.68084q0.35856 0.02826 0.69464-0.13186 0.33608-0.16012 0.50372-0.44549l0.07212-0.91494-0.5976-0.0471q-1.4013-0.11045-1.4659 0.7097-0.02826 0.35856 0.19486 0.57934 0.22312 0.22079 0.59816 0.25035z"/>
        <path d="m79.199 27.019q-0.16631-0.05768-0.36601-0.09168-0.74173-0.12631-1.1142 0.46028l-0.53299 3.13-0.75396-0.12839 0.75091-4.4097 0.73358 0.12492-0.07452 0.51152q0.4715-0.52779 1.1521-0.41189 0.22008 0.03748 0.32447 0.11396z"/>
        <path d="m79.66 28.635q0.26425-0.9949 0.89598-1.473 0.63279-0.4821 1.396-0.2794 0.75916 0.20164 1.0647 0.83887l0.59855-2.2535 0.73918 0.19633-1.6301 6.1372-0.67925-0.18042 0.08715-0.47304q-0.58784 0.4256-1.379 0.21547-0.75117-0.19952-1.0632-0.94113-0.30804-0.74055-0.04485-1.7315zm0.7169 0.28024q-0.19527 0.73519-2e-3 1.2314 0.19329 0.4962 0.7287 0.63841 0.70322 0.18678 1.1945-0.35856l0.52745-1.9858q-0.16926-0.69941-0.8565-0.88195-0.5434-0.14433-0.9585 0.19455-0.4151 0.33888-0.63372 1.162z"/>
        <path d="m88.491 31.029-0.98726 0.38957-0.84576 1.8498-0.72188-0.33005 2.5029-5.4742 0.72188 0.33005-1.2377 2.707 3.6703-1.5948 0.87227 0.39881-3.2597 1.4325 0.92598 4.1191-0.86475-0.39538z"/>
        <path d="m93.483 31.694-0.27194 0.49272q0.77367-0.2831 1.4793 0.14794 1.2101 0.73924 0.38658 2.111l-1.541 2.5224-0.65266-0.39872 1.5431-2.526q0.24863-0.41492 0.18235-0.72671-0.06276-0.30963-0.45435-0.54886-0.31751-0.19397-0.66086-0.17119-0.34335 0.02278-0.64552 0.21606l-1.6617 2.72-0.65266-0.39872 2.332-3.8172z"/>
        <path d="m95.733 35.705q0.40486-0.51785 0.93017-0.7736 0.52856-0.25321 1.0658-0.1953 0.54047 0.06046 1.0062 0.42458 0.71978 0.56273 0.77313 1.4073 0.05661 0.84715-0.59014 1.6744l-0.0331 0.04234q-0.40232 0.51459-0.92182 0.76964-0.5137 0.25434-1.06 0.19459-0.54301-0.0572-1.0185-0.42896-0.71652-0.56018-0.77313-1.4073-0.05336-0.8446 0.58831-1.6653zm0.54977 0.54526q-0.45833 0.58624-0.46556 1.1526-4e-3 0.56889 0.452 0.92537 0.45922 0.35903 1.0096 0.21211 0.55296-0.15017 1.0597-0.7983 0.45324-0.57973 0.4565-1.1544 0.0091-0.5754-0.44691-0.93189-0.4462-0.34884-0.99732-0.20773t-1.068 0.80227z"/>
        <path d="m99.907 41.528q0.29227 0.28651 0.68437 0.32355 0.39211 0.03703 0.67619-0.20551l0.51663 0.50646q-0.28391 0.26008-0.70119 0.33731-0.41728 0.07723-0.85425-0.06168-0.43402-0.13601-0.75876-0.45436-0.65243-0.63959-0.61373-1.4527 0.04454-0.81315 0.78543-1.5689l0.08972-0.09152q0.45726-0.46644 0.98446-0.6617t1.0428-0.08345q0.51858 0.11471 0.9555 0.54303 0.5373 0.52672 0.57611 1.1958 0.0417 0.67197-0.4382 1.2088l-0.51663-0.50646q0.28026-0.33313 0.26161-0.7393-0.0128-0.40623-0.32279-0.71011-0.41625-0.40806-0.94172-0.33268-0.51962 0.07532-1.0753 0.64214l-0.10129 0.10333q-0.5412 0.55206-0.60618 1.0731-0.06499 0.52101 0.35718 0.93487z"/>
        <path d="m103.76 43.451-0.69107-0.05116-1.2112 1.0005-0.48708-0.58966 4.8958-4.044 0.48707 0.58966-2.9611 2.4459 0.63994 0.0022 2.022 0.13686 0.59238 0.71716-2.5491-0.15185-0.77062 3.1567-0.57132-0.69166z"/>
        <path d="m106.48 48.666q0.25822-0.17165 0.26892-0.46172 0.0164-0.28892-0.20297-0.84302-0.21712-0.55066-0.26248-0.93254-0.0431-0.37844 0.0651-0.64889 0.11043-0.26701 0.38586-0.4501 0.4579-0.30439 1.031-0.12934 0.57536 0.17849 0.97587 0.78099 0.4211 0.63348 0.35493 1.2434-0.0639 0.61335-0.57342 0.95206l-0.42568-0.64037q0.26166-0.17394 0.30225-0.5236 0.0429-0.34622-0.1814-0.68362-0.23115-0.34773-0.51309-0.44327-0.28193-0.09554-0.52638 0.06695-0.23067 0.15334-0.22643 0.41362 4e-3 0.26028 0.21334 0.80634 0.2114 0.5495 0.26017 0.944 0.0488 0.3945-0.0674 0.67526-0.11045 0.28192-0.40997 0.48103-0.49922 0.33185-1.0677 0.13388-0.56501-0.20026-0.9884-0.83719-0.29752-0.44757-0.36802-0.89713t0.0814-0.83347q0.1576-0.38276 0.48811-0.60246l0.4234 0.63693q-0.30874 0.23006-0.34019 0.59349-0.0257 0.36459 0.2352 0.75707 0.2403 0.3615 0.52909 0.48228 0.29451 0.12193 0.53895-0.04056z"/>
      </g>
      <circle transform="rotate(195.65)" cx="-87.028" cy="-49.883" r="41.556" fill="none" stroke-width=".25083"/>
    </g>
    <g transform="translate(-6.3923 117.17)">
      <ellipse transform="matrix(-.99791 -.064594 -.05736 .99835 0 0)" cx="-140.37" cy="99.904" rx="44.097" ry="43.575" fill="none" opacity=".50372" stroke-width=".26459"/>
      <g transform="matrix(1.0808 .042852 -.042852 1.0808 -7.1337 -15.481)" fill="#fff" stroke-width=".23189" aria-label="Department of Information Technology">
        <path d="m90.257 106.66 6.0192-0.037 0.01045 1.6991q0.0048 0.78547-0.33872 1.3912-0.34355 0.60571-0.98232 0.93624-0.63874 0.33467-1.4697 0.34392l-0.38447 2e-3q-0.85162 5e-3 -1.4944-0.32154-0.64279-0.32265-0.98968-0.93238-0.34686-0.60559-0.36012-1.4158zm5.3709 0.76073-4.717 0.029 0.0051 0.83507q0.0056 0.91776 0.57927 1.4227 0.57365 0.50911 1.6278 0.50263l0.35139-2e-3q1.0252-6e-3 1.5886-0.49348 0.56755-0.48306 0.57037-1.3678z"/>
        <path d="m90.532 113.94q-0.11073-0.90274 0.4107-1.5415 0.52553-0.63925 1.5185-0.76105l0.13952-0.0171q0.66064-0.081 1.2084 0.10586 0.55233 0.19048 0.89904 0.60612 0.35131 0.41923 0.41624 0.94857 0.1062 0.86581-0.40528 1.4159-0.51148 0.55006-1.5743 0.68042l-0.31596 0.0387-0.36893-3.0078q-0.65453 0.0969-1.016 0.51197-0.35683 0.41863-0.28737 0.9849 0.04932 0.40213 0.24769 0.66102 0.19836 0.2589 0.49485 0.43495l-0.30422 0.50798q-0.92606-0.45287-1.063-1.569zm3.9687-0.5826q-0.05637-0.45957-0.4311-0.73016-0.37063-0.27109-0.98288-0.27096l0.2728 2.224 0.05745-7e-3q0.57455-0.1038 0.85628-0.42158 0.28584-0.31829 0.22745-0.79429z"/>
        <path d="m93.977 119.72q-0.99442 0.23202-1.7085-0.0811-0.71407-0.31309-0.89537-1.0901-0.18506-0.79312 0.21204-1.3655l-2.0975 0.48941-0.17378-0.7448 6.0309-1.4072 0.15875 0.68039-0.47466 0.14896q0.66979 0.32342 0.8586 1.1326 0.18318 0.78507-0.30249 1.3781-0.48473 0.59705-1.5395 0.84317zm-0.08924-0.76454q0.73676-0.1719 1.0902-0.5855 0.35348-0.41361 0.22573-0.96114-0.15782-0.67637-0.8366-0.87458l-2.0814 0.48565q-0.51788 0.47319-0.35725 1.1616 0.12494 0.53546 0.62094 0.75085 0.50097 0.21848 1.3384 0.0231z"/>
        <path d="m93.048 123.75q0.10293-0.10622 0.40912-0.25748-0.69931-0.31979-0.94434-1.018-0.21902-0.62415-0.0089-1.1492 0.21536-0.52246 0.75759-0.71273 0.65926-0.23134 1.1973 0.14068 0.54327 0.37454 0.86222 1.2835l0.2464 0.70217 0.33158-0.11636q0.37839-0.13278 0.52135-0.43706 0.14686-0.30564-0.0078-0.74645-0.13552-0.38619-0.42228-0.57911-0.28676-0.19292-0.56373-0.0957l-0.25461-0.72557q0.31598-0.11088 0.68657 9e-3 0.37586 0.12222 0.68165 0.44428 0.30716 0.32596 0.46868 0.78627 0.25598 0.72947 0.03439 1.2716-0.21769 0.5408-0.85196 0.7809l-1.9427 0.68169q-0.58124 0.20396-0.8725 0.47266l-0.06242 0.0219zm0.12979-1.3906q0.11909 0.33939 0.4014 0.58206 0.28231 0.24267 0.61109 0.28065l0.86601-0.30389-0.19849-0.56564q-0.46541-1.3263-1.2417-1.0539-0.33938 0.11909-0.45113 0.41242t0.01282 0.64831z"/>
        <path d="m98.08 125.87q-0.04536-0.17008-0.12902-0.35457-0.31076-0.68524-1.0053-0.66531l-2.8916 1.3113-0.31588-0.69653 4.0738-1.8475 0.30734 0.67771-0.46551 0.22473q0.70131 0.095 0.98646 0.7238 0.0922 0.20331 0.0873 0.33264z"/>
        <path d="m100.43 126.53-0.95444 0.51208 0.39482 0.73587-0.52094 0.2795-0.39481-0.73587-2.4444 1.3115q-0.23679 0.12704-0.30423 0.2899-0.0638 0.1609 0.06324 0.39769 0.06255 0.11658 0.21571 0.29713l-0.54644 0.29317q-0.21554-0.22684-0.3504-0.4782-0.24236-0.45172-0.09228-0.82781 0.15008-0.3761 0.65281-0.64582l2.4444-1.3115-0.38504-0.71765 0.52094-0.2795 0.38504 0.71765 0.95444-0.51208z"/>
        <path d="m100.38 128.75-0.39543 0.30028q0.75607 0.0733 1.233 0.75882 0.53595 0.77036 0.13905 1.4594 0.3922-9e-4 0.75814 0.17763 0.3683 0.18192 0.64689 0.58237 0.84051 1.2081-0.42472 2.1186l-2.4604 1.7117-0.43678-0.62783 2.4231-1.6857q0.39366-0.27387 0.46196-0.58831 0.0717-0.3168-0.22342-0.74101-0.24318-0.34954-0.61413-0.43393-0.36756-0.0867-0.74647 0.12147l-2.4366 1.6952-0.43914-0.63122 2.4061-1.6739q0.8009-0.55719 0.25552-1.3411-0.4297-0.61764-1.1139-0.47906l-2.681 1.8652-0.43678-0.62782 3.6719-2.5546z"/>
        <path d="m101.87 138.13q-0.61444-0.67057-0.56095-1.4934 0.0565-0.82561 0.79417-1.5015l0.10364-0.095q0.49073-0.44966 1.0452-0.61564 0.56027-0.16572 1.0839-0.0287 0.52947 0.13724 0.88976 0.53044 0.58931 0.64313 0.49241 1.388t-0.88635 1.4682l-0.2347 0.21506-2.0472-2.2342q-0.47652 0.45906-0.5297 1.0068-0.0473 0.54803 0.33808 0.96866 0.2737 0.29871 0.58555 0.39426 0.31184 0.0956 0.65545 0.0667l0.0474 0.59021q-1.0169 0.16919-1.7766-0.65988zm2.8924-2.7792q-0.31281-0.34138-0.77501-0.34401-0.45916-5e-3 -0.95749 0.35027l1.5138 1.652 0.0427-0.0391q0.40743-0.41819 0.45221-0.84051 0.0478-0.42511-0.27615-0.77869z"/>
        <path d="m107.27 137.11-0.35494 0.43674q0.81159-0.14154 1.4296 0.4077 1.06 0.94194 6e-3 2.1461l-1.9635 2.2095-0.57169-0.50805 1.9663-2.2126q0.31822-0.3643 0.30823-0.6829-7e-3 -0.31586-0.34992-0.62069-0.27812-0.24715-0.62007-0.28557-0.34196-0.0384-0.67359 0.0983l-2.1173 2.3826-0.57169-0.50805 2.9714-3.3436z"/>
        <path d="m111.47 139.19-0.64971 0.86665 0.66818 0.50091-0.35461 0.47302-0.66818-0.50092-1.6639 2.2196q-0.16119 0.21501-0.15371 0.39112 0.01 0.17281 0.22497 0.33399 0.10585 0.0794 0.32084 0.17853l-0.37196 0.49617q-0.29107-0.11486-0.51931-0.28597-0.41017-0.30749-0.43258-0.71181-0.0224-0.40431 0.3198-0.86079l1.664-2.2196-0.65164-0.48852 0.35461-0.47301 0.65164 0.48851 0.6497-0.86664z"/>
        <path d="m112.22 143.73q0.32154-0.57332 0.80192-0.90587 0.48399-0.33053 1.0238-0.35486 0.54339-0.0223 1.059 0.26687 0.79687 0.44692 0.97786 1.2736 0.18458 0.82873-0.32907 1.7446l-0.0263 0.0469q-0.31951 0.56971-0.79427 0.90068-0.46912 0.32938-1.0181 0.35327-0.5454 0.0259-1.0718-0.26933-0.79327-0.4449-0.97785-1.2736-0.18098-0.8267 0.32862-1.7354zm0.62618 0.45546q-0.364 0.64904-0.28515 1.2099 0.0825 0.56289 0.58727 0.84601 0.50842 0.28513 1.0301 0.0563 0.52375-0.23239 0.92618-0.94994 0.35996-0.64182 0.27591-1.2104-0.0784-0.57011-0.58322-0.85322-0.49399-0.27705-1.0173-0.0539-0.52331 0.22316-0.93383 0.95513z"/>
        <path d="m115.88 148.25 1.5963-3.5386-0.6444-0.2907 0.24311-0.53888 0.6444 0.2907 0.1887-0.4183q0.2958-0.6557 0.80776-0.8556 0.51197-0.1999 1.1526 0.0891 0.24118 0.1088 0.44969 0.27997l-0.29269 0.54826q-0.16181-0.11382-0.36154-0.20392-0.33916-0.153-0.61391-0.0366-0.27305 0.11266-0.43965 0.48196l-0.19381 0.4296 0.87051 0.3927-0.2431 0.53889-0.87051-0.3927-1.5963 3.5385z"/>
        <path d="m121.12 150.29-0.75407-0.24787 1.8796-5.7183 0.75406 0.24786z"/>
        <path d="m124.15 146.53-0.10912 0.55211q0.65084-0.50509 1.4541-0.30918 1.3776 0.33598 1.0106 1.8933l-0.70038 2.8717-0.74304-0.18122 0.70136-2.8757q0.11059-0.4709-0.0474-0.74774-0.154-0.27585-0.59982-0.38458-0.36148-0.0882-0.68161 0.038-0.32014 0.12617-0.54917 0.40223l-0.75523 3.0966-0.74303-0.18121 1.0599-4.3458z"/>
        <path d="m127.32 151.79 0.59598-3.8359-0.69856-0.10853 0.0908-0.58417 0.69856 0.10853 0.0704-0.45345q0.11043-0.71081 0.55065-1.0399 0.44021-0.32906 1.1347-0.22116 0.26145 0.0406 0.50802 0.15005l-0.13606 0.60642q-0.18628-0.0666-0.4028-0.10023-0.36766-0.0571-0.60147 0.12829-0.23317 0.18132-0.29537 0.58166l-0.0724 0.46571 0.94367 0.14661-0.0908 0.58417-0.94367-0.14661-0.59597 3.8359z"/>
        <path d="m129.81 149.89q0.0448-0.6558 0.33634-1.1621 0.29564-0.50605 0.77291-0.75936 0.48139-0.25302 1.0712-0.21271 0.91151 0.0623 1.4293 0.73168 0.52193 0.66966 0.45034 1.7173l-4e-3 0.0536q-0.0445 0.65167-0.33164 1.1542-0.28271 0.49866-0.76851 0.75552-0.48168 0.25715-1.0838 0.21599-0.9074-0.062-1.4293-0.73168-0.51781-0.66938-0.44677-1.7088zm0.76096 0.14316q-0.0507 0.74241 0.26087 1.2154 0.31574 0.47325 0.89317 0.51271 0.58155 0.0397 0.95489-0.39056 0.37363-0.43442 0.42972-1.2552 0.0502-0.73416-0.26941-1.2118-0.31517-0.48149-0.8926-0.52096-0.56506-0.0386-0.94224 0.38728-0.37718 0.4259-0.4344 1.2632z"/>
        <path d="m136.77 148.59q-0.1741-0.026-0.37664-0.0226-0.75231 0.0127-1.0102 0.65796l0.0537 3.1746-0.7647 0.0129-0.0756-4.4725 0.74403-0.0126 0.0211 0.51648q0.36602-0.60572 1.0563-0.61739 0.22321-4e-3 0.33993 0.0521z"/>
        <path d="m137.67 147.9 0.0861 0.489q0.41106-0.63878 1.2388-0.74927 0.9302-0.12417 1.3614 0.54399 0.17861-0.34917 0.50476-0.5929 0.33026-0.24428 0.81379-0.30883 1.4588-0.19473 1.6896 1.3468l0.39657 2.9709-0.75809 0.10119-0.39055-2.9258q-0.0635-0.47534-0.31182-0.67992-0.24891-0.20868-0.76113-0.14031-0.42207 0.0563-0.66681 0.3476-0.24528 0.28716-0.23347 0.71935l0.39275 2.9422-0.76219 0.10174-0.38782-2.9053q-0.12909-0.96708-1.0757-0.84072-0.7458 0.0995-0.93556 0.77135l0.43212 3.2372-0.75809 0.1012-0.59185-4.4338z"/>
        <path d="m147.54 150.54q-0.099-0.10991-0.22906-0.42568-0.36661 0.67595-1.0799 0.87293-0.6376 0.17607-1.1471-0.0692-0.50661-0.25039-0.65957-0.8043-0.18597-0.67346 0.22177-1.1849 0.41062-0.51654 1.3391-0.77295l0.7173-0.19807-0.0935-0.33873q-0.10674-0.38654-0.4006-0.54986-0.29495-0.1673-0.74525-0.0429-0.39452 0.10894-0.60649 0.38192-0.21197 0.27297-0.13384 0.55591l-0.74121 0.20468q-0.0891-0.32278 0.0555-0.68438 0.1475-0.36669 0.48961-0.64987 0.34609-0.28428 0.81632-0.41413 0.74519-0.20578 1.271 0.0522 0.52475 0.25396 0.72116 0.90309l0.54801 1.9845q0.16397 0.59377 0.41224 0.90263l0.0176 0.0638zm-1.3786-0.22405q0.34669-0.0957 0.608-0.36089 0.26131-0.26516 0.32155-0.5906l-0.2443-0.88466-0.57782 0.15956q-1.3549 0.37415-1.1359 1.1672 0.0957 0.34669 0.38079 0.47813 0.28505 0.13144 0.64769 0.0313z"/>
        <path d="m148.34 144.39 0.37506 1.0161 0.78343-0.28917 0.20471 0.5546-0.78343 0.28917 0.96056 2.6024q0.0931 0.25209 0.245 0.34143 0.15053 0.0855 0.40262-8e-3 0.12411-0.0458 0.32412-0.17251l0.21473 0.58176q-0.25449 0.18206-0.5221 0.28084-0.48091 0.17751-0.83262-0.0232-0.3517-0.20069-0.54925-0.73591l-0.96056-2.6024-0.76404 0.28201-0.2047-0.55461 0.76403-0.28201-0.37506-1.0161z"/>
        <path d="m152.64 148.64-0.70183 0.30393-1.7776-4.1048 0.70183-0.30393zm-3.0078-4.865q-0.0739-0.17072-0.0224-0.33268 0.0553-0.1636 0.26016-0.25231 0.20486-0.0887 0.36201-0.0171t0.23108 0.24232q0.0739 0.17072 0.017 0.33053t-0.2618 0.24852q-0.20486 0.0887-0.36037 0.0209-0.15172-0.0694-0.22564-0.24017z"/>
        <path d="m152.52 146.24q-0.30779-0.58081-0.32714-1.1648-0.0157-0.58588 0.2562-1.0528 0.27556-0.46885 0.79793-0.74566 0.8073-0.4278 1.6003-0.13217 0.79662 0.29371 1.2883 1.2216l0.0252 0.0475q0.30585 0.57716 0.32693 1.1555 0.0228 0.57277-0.25449 1.0472-0.27363 0.47251-0.80696 0.75513-0.80364 0.42586-1.6003 0.13216-0.79297-0.29564-1.2808-1.2162zm0.72203-0.27968q0.34843 0.65753 0.86262 0.89503 0.51784 0.23557 1.0293-0.0354 0.51506-0.27294 0.60532-0.83543 0.0883-0.56614-0.29689-1.2931-0.34456-0.65022-0.86799-0.88751-0.52171-0.24287-1.0331 0.0281-0.50045 0.2652-0.5963 0.82597-0.0958 0.56077 0.29711 1.3023z"/>
        <path d="m156.09 141.73 0.33605 0.45144q0.0624-0.82148 0.74674-1.2855 1.1737-0.79576 2.0818 0.52152l1.6588 2.4466-0.63303 0.4292-1.6611-2.45q-0.27486-0.39803-0.58614-0.46669-0.30785-0.071-0.68767 0.18654-0.30796 0.2088-0.42928 0.53081t-0.0704 0.67707l1.7887 2.6382-0.63303 0.4292-2.5102-3.7024z"/>
        <path d="m162.8 135.11-1.4139 1.3207 3.6629 3.9216-0.57706 0.53898-3.6628-3.9215-1.4109 1.3178-0.44587-0.47735 3.4019-3.1775z"/>
        <path d="m168.25 137.09q-0.59269 0.68987-1.416 0.73467-0.82647 0.0421-1.5853-0.60986l-0.10661-0.0916q-0.50486-0.43374-0.73564-0.96448-0.23121-0.53656-0.1575-1.0728 0.0733-0.54205 0.42079-0.94656 0.56845-0.66165 1.3195-0.65407 0.75107 8e-3 1.5632 0.70535l0.24146 0.20744-1.9747 2.2985q0.5125 0.41851 1.0627 0.40613 0.54977-0.0182 0.92155-0.45094 0.26402-0.3073 0.32178-0.6283 0.0578-0.32099-0.0118-0.65873l0.58038-0.11726q0.28898 0.98952-0.4438 1.8424zm-3.1037-2.5411q-0.30173 0.35121-0.24935 0.81044 0.0493 0.45654 0.46172 0.90901l1.4602-1.6996-0.0439-0.0377q-0.4637-0.35478-0.88835-0.34898-0.42779 3e-3 -0.7403 0.36684z"/>
        <path d="m170.43 133.22q0.2333-0.33627 0.20388-0.72902-0.0294-0.39275-0.31627-0.63201l0.4124-0.59443q0.30411 0.23614 0.4504 0.6345t0.0828 0.85246q-0.0611 0.45071-0.32032 0.82435-0.5208 0.75067-1.3288 0.84922-0.80907 0.0928-1.6786-0.51047l-0.10529-0.0731q-0.53668-0.37233-0.8178-0.8592-0.28112-0.48686-0.25758-1.014 0.0259-0.53048 0.37466-1.0332 0.42889-0.6182 1.0819-0.76894 0.65538-0.15414 1.2653 0.22873l-0.41239 0.59443q-0.37551-0.22027-0.77276-0.1336-0.3983 0.0809-0.64573 0.43758-0.33228 0.47894-0.16963 0.98425 0.16162 0.49956 0.81379 0.95202l0.11888 0.0825q0.63519 0.44067 1.1597 0.41714 0.52452-0.0235 0.86151-0.50927z"/>
        <path d="m169.25 128.77q-0.30365-0.7457 0.0872-1.4602 0.6805-1.244 2.0901-0.48714l2.5933 1.4185-0.36704 0.67099-2.5969-1.4205q-0.42634-0.2285-0.7346-0.14737-0.30628 0.0775-0.5265 0.48009-0.17855 0.32643-0.13937 0.66829 0.0392 0.34187 0.2467 0.63444l2.7964 1.5296-0.36704 0.67099-5.571-3.0474 0.36704-0.67099z"/>
        <path d="m170.66 124.83 0.52923 0.19143q-0.40075-0.7198-0.0855-1.4842 0.54064-1.3109 2.0244-0.71236l2.7326 1.127-0.29161 0.70704-2.7364-1.1286q-0.44874-0.18059-0.7463-0.0663-0.29599 0.11047-0.47095 0.53469-0.14186 0.34397-0.0656 0.67951 0.0763 0.33555 0.31447 0.60372l2.9466 1.2153-0.2916 0.70704-4.1352-1.7055z"/>
        <path d="m174 122.43q-0.63178-0.18148-1.0656-0.57278-0.43273-0.39528-0.58021-0.91509-0.14633-0.52378 0.0169-1.092 0.25224-0.87813 1.0154-1.2439 0.7643-0.36974 1.7736-0.0798l0.0517 0.0148q0.6278 0.18033 1.0588 0.56652 0.4282 0.38108 0.57737 0.90998 0.15031 0.52492-0.0163 1.105-0.2511 0.87416-1.0154 1.2439-0.76316 0.36576-1.7645 0.0781zm0.29971-0.71396q0.71522 0.20545 1.2431 6e-5 0.52898-0.20937 0.68877-0.76565 0.16093-0.56026-0.18142-1.0156-0.34632-0.45649-1.137-0.68362-0.70727-0.20316-1.2414 9e-3 -0.53693 0.20708-0.69671 0.76336-0.15637 0.54436 0.18086 1.0025 0.33724 0.45818 1.1438 0.68987z"/>
        <path d="m177.64 117.38-0.15138 0.74968-6.2244-1.2568 0.15138-0.74968z"/>
        <path d="m175.61 116.11q-0.65263-0.0784-1.1433-0.39553-0.49022-0.32122-0.7187-0.81086-0.22798-0.49375-0.15746-1.0807 0.10899-0.90712 0.80407-1.3899 0.69556-0.48688 1.7381-0.36161l0.0534 6e-3q0.64853 0.0779 1.1356 0.39044 0.48349 0.30792 0.71508 0.80626 0.23209 0.49424 0.16009 1.0935-0.10849 0.90301-0.80406 1.3899-0.69508 0.48278-1.7294 0.3585zm0.18203-0.75261q0.73883 0.0888 1.2272-0.19816 0.48883-0.29103 0.55787-0.86568 0.0695-0.57875-0.34103-0.97368-0.41468-0.39542-1.2315-0.49356-0.73062-0.0878-1.224 0.20686-0.49704 0.29005-0.56608 0.86469-0.0676 0.56234 0.33842 0.96088 0.40597 0.39854 1.2392 0.49865z"/>
        <path d="m176.13 111.53q-1.0459-0.0104-1.657-0.50016-0.61529-0.48982-0.60737-1.2877 8e-3 -0.81852 0.59143-1.2716l-0.4957-0.0421 7e-3 -0.69863 4.3654 0.0433q0.86813 9e-3 1.3632 0.53032 0.49512 0.51757 0.4865 1.3857-5e-3 0.48367-0.21609 0.94462-0.21129 0.46095-0.57336 0.70128l-0.45493-0.40141q0.61257-0.4859 0.61962-1.1969 6e-3 -0.55808-0.30556-0.87124-0.31106-0.3173-0.88154-0.32296l-0.38446-4e-3q0.52459 0.46411 0.51672 1.2578-8e-3 0.78544-0.64513 1.267-0.63729 0.47739-1.7286 0.46656zm0.0944-0.76805q0.7565 8e-3 1.1936-0.29823 0.43301-0.30577 0.43855-0.86386 7e-3 -0.72343-0.64676-1.0689l-2.0422-0.0203q-0.64424 0.34502-0.65121 1.0478-6e-3 0.55808 0.4254 0.87657 0.43095 0.31848 1.2825 0.32693z"/>
        <path d="m177.12 105.27-3.4336-0.73288-0.0744-0.81517 5.3056 1.3218q1.1495 0.31441 1.2322 1.2202l7.9e-4 0.14522-0.0276 0.28896-0.61756 0.0563-2e-3 -0.20735q-0.0353-0.38701-0.21128-0.58682-0.17636-0.20393-0.60495-0.30597l-0.46827-0.12748-4.2602 1.9911-0.0759-0.83164z"/>
      </g>
    </g>
    <path d="m84.753 214.32-1.5127-0.11586-0.92191 1.2049-0.35726-1.4744-1.4308-0.50446 1.2919-0.7954 0.03763-1.5166 1.1557 0.98287 1.454-0.43288-0.57763 1.4028z" fill="#fff" style="paint-order:stroke fill markers"/>
    <path d="m174.63 214.31-1.5127-0.11586-0.9219 1.2049-0.35726-1.4744-1.4308-0.50446 1.2919-0.7954 0.0376-1.5166 1.1557 0.98286 1.454-0.43288-0.57763 1.4028z" fill="#fff" style="paint-order:stroke fill markers"/>
    <g transform="matrix(2.0002 0 0 2.1593 95.394 180.7)" stroke-width=".12731">
      <path d="m22.084 13.754v-5.675l-1.282-0.247v-3.12l-4.567-1.104v-6e-3l-0.016 3e-3 -0.015-3e-3v7e-3l-4.79 1.148v3.141l-1.302 0.248v5.774l-10.112 1.009v11.555l16.232 1.915 0.959-0.113v-5.477l4.318-0.164v5.127l10.491-1.227v-11.772zm-20.957 1.93 3.223-0.27v0.815l-3.223 0.225zm3.223 7.57-3.223-0.17v-0.771l3.223 0.124zm0-1.664-3.223-0.076v-0.771l3.223 0.031zm8e-3 -1.824-3.224 0.025v-0.771l3.224-0.07zm0-1.665-3.224 0.119v-0.771l3.224-0.166zm0.899-2.751 3.749-0.313v0.883l-3.749 0.26zm3.749 8.164-3.749-0.199v-0.828l3.749 0.146zm0-1.801-3.749-0.09v-0.828l3.749 0.037zm0.011-1.971-3.751 0.028v-0.828l3.751-0.083zm0-1.801-3.751 0.139v-0.83l3.751-0.19zm1.761-8.704 4.52-0.777v0.971l-4.52 0.713zm0 1.851 4.52-0.646v0.972l-4.52 0.582zm-0.01 1.882 4.519-0.514v0.972l-4.519 0.449zm0 1.85 4.519-0.383v0.972l-4.519 0.318zm4.518 8.952-4.519-0.233v-0.907l4.519 0.17zm0-1.981-4.519-0.104v-0.907l4.519 0.039zm0.013-2.172-4.521 0.039v-0.906l4.521-0.104zm0-1.982-4.521 0.171v-0.908l4.521-0.233zm1.867-9.129 4.322 0.746v0.933l-4.322-0.683zm-0.025 4.049 4.324 0.488v0.933l-4.324-0.425zm0.011 1.969 4.324 0.362v0.934l-4.324-0.3zm0.019 4.2 4.322 0.096v0.933l-4.322-0.03zm4.328 3.009-4.319 0.103v-0.996l4.319-0.039zm0-3.86-4.319-0.159v-0.995l4.319 0.223zm0-5.844-4.319-0.557v-0.996l4.319 0.62zm1.626 2.974 3.617 0.305v0.855l-3.617-0.252zm3.637 2.189v0.855l-3.613-0.136v-0.907zm-3.621 1.642 3.616 0.08v0.855l-3.616-0.027zm5e-3 1.93 3.615-0.031v0.855l-3.615 0.084zm3.625 2.512-3.614 0.19v-0.908l3.614-0.138zm1.027-7.882 3.106 0.262v0.795l-3.106-0.216zm3.123 2.012v0.793l-3.104-0.115v-0.84zm-3.109 1.53 3.104 0.069v0.794l-3.104-0.023zm4e-3 1.783 3.104-0.026v0.794l-3.104 0.073zm3.114 2.336-3.104 0.163v-0.841l3.104-0.116z" fill="#fff" stroke-width=".12731"/>
    </g>
    <g fill="#fff" opacity=".993" stroke-width=".26458" aria-label="UHKest. 1919">
      <path d="m121.97 244.37v5.9097q0 1.0046-0.42788 1.7425-0.42788 0.73174-1.2278 1.1162-0.79995 0.38447-1.8914 0.38447-1.6495 0-2.5983-0.85576-0.94878-0.85577-0.96738-2.344v-5.9531h2.189v5.9965q0.0372 1.4821 1.3767 1.4821 0.67593 0 1.0232-0.37207 0.34726-0.37207 0.34726-1.2092v-5.8973z"/>
      <path d="m130.87 253.4h-2.1642v-3.7703h-3.206v3.7703h-2.1766v-9.0289h2.1766v3.5843h3.206v-3.5843h2.1642z"/>
      <path d="m135.32 250.04-0.89297 0.97978v2.3812h-2.1766v-9.0289h2.1766v3.9812l0.75654-1.1472 1.9472-2.8339h2.6913l-3.051 3.9936 3.051 5.0354h-2.5797z"/>
      <path d="m120.68 257.88q-0.37896 0-0.61667-0.24805-0.23772-0.24977-0.23772-0.66663v-0.0586q0-0.27733 0.10508-0.49437 0.1068-0.21877 0.29628-0.34107 0.1912-0.12402 0.41341-0.12402 0.36346 0 0.565 0.23943 0.20154 0.23944 0.20154 0.68558v0.13264h-1.2626q7e-3 0.27561 0.1602 0.44614 0.15503 0.16881 0.39274 0.16881 0.16881 0 0.28594-0.0689 0.11714-0.0689 0.20499-0.18259l0.19465 0.15158q-0.23427 0.36002-0.70281 0.36002zm-0.0396-1.6709q-0.19292 0-0.32384 0.14125-0.13091 0.13952-0.16192 0.39274h0.93363v-0.0241q-0.0138-0.24288-0.13092-0.37551-0.11713-0.13436-0.31695-0.13436z"/>
      <path d="m122.86 257.35q0-0.12919-0.0982-0.19981-0.0965-0.0724-0.33935-0.12403-0.24116-0.0517-0.38413-0.12402-0.14125-0.0723-0.21015-0.17226-0.0672-0.0999-0.0672-0.23771 0-0.2291 0.19293-0.38758 0.19465-0.15847 0.49609-0.15847 0.31695 0 0.51333 0.16364 0.19809 0.16364 0.19809 0.41858h-0.3204q0-0.13091-0.11196-0.22565-0.11025-0.0947-0.27906-0.0947-0.17398 0-0.27216 0.0758-0.0982 0.0758-0.0982 0.19809 0 0.11541 0.0913 0.17398 0.0913 0.0586 0.32901 0.11197 0.23943 0.0534 0.38757 0.12747 0.14814 0.0741 0.21877 0.17914 0.0724 0.10336 0.0724 0.25322 0 0.24977-0.19982 0.40135-0.19982 0.14987-0.51849 0.14987-0.22393 0-0.39619-0.0792t-0.27044-0.22049q-0.0965-0.14297-0.0965-0.30834h0.31867q9e-3 0.1602 0.12747 0.25494 0.12058 0.093 0.31695 0.093 0.18087 0 0.28939-0.0724 0.11024-0.0741 0.11024-0.19637z"/>
      <path d="m124.03 255.53v0.45131h0.34796v0.24632h-0.34796v1.1558q0 0.11197 0.0465 0.16881 0.0465 0.0551 0.15848 0.0551 0.0551 0 0.15158-0.0207v0.25839q-0.12574 0.0344-0.2446 0.0344-0.2136 0-0.32212-0.12919-0.10852-0.1292-0.10852-0.36691v-1.1558h-0.33934v-0.24632h0.33934v-0.45131z"/>
      <path d="m124.75 257.68q0-0.0827 0.0482-0.13781 0.0499-0.0551 0.14814-0.0551 0.0982 0 0.14814 0.0551 0.0517 0.0551 0.0517 0.13781 0 0.0792-0.0517 0.13264-0.05 0.0534-0.14814 0.0534-0.0982 0-0.14814-0.0534-0.0482-0.0534-0.0482-0.13264z"/>
      <path d="m127.56 257.85h-0.3204v-2.1239l-0.64251 0.23599v-0.28939l0.91295-0.34279h0.05z"/>
      <path d="m129.72 256.74q-0.0999 0.11886-0.23944 0.1912-0.1378 0.0724-0.30317 0.0724-0.21704 0-0.37896-0.1068-0.1602-0.1068-0.24805-0.29972-0.0879-0.19465-0.0879-0.42892 0-0.25149 0.0947-0.45303 0.0965-0.20154 0.27217-0.30834 0.1757-0.1068 0.40996-0.1068 0.37208 0 0.58567 0.27905 0.21532 0.27734 0.21532 0.75793v0.093q0 0.73209-0.28939 1.0697-0.28939 0.3359-0.87333 0.34451h-0.062v-0.26872h0.0672q0.39447-7e-3 0.60635-0.20498 0.21187-0.19982 0.23082-0.63046zm-0.49093 0q0.1602 0 0.29456-0.0982 0.13608-0.0982 0.19809-0.24288v-0.12747q0-0.3135-0.13608-0.50987-0.13608-0.19638-0.34451-0.19638-0.21016 0-0.33762 0.16192-0.12747 0.1602-0.12747 0.42375 0 0.25667 0.1223 0.42375 0.12402 0.16537 0.33073 0.16537z"/>
      <path d="m131.53 257.85h-0.32039v-2.1239l-0.64252 0.23599v-0.28939l0.91296-0.34279h0.0499z"/>
      <path d="m133.68 256.74q-0.0999 0.11886-0.23943 0.1912-0.13781 0.0724-0.30317 0.0724-0.21705 0-0.37897-0.1068-0.16019-0.1068-0.24804-0.29972-0.0879-0.19465-0.0879-0.42892 0-0.25149 0.0947-0.45303 0.0965-0.20154 0.27216-0.30834 0.1757-0.1068 0.40997-0.1068 0.37207 0 0.58567 0.27905 0.21532 0.27734 0.21532 0.75793v0.093q0 0.73209-0.28939 1.0697-0.28939 0.3359-0.87334 0.34451h-0.062v-0.26872h0.0672q0.39447-7e-3 0.60634-0.20498 0.21187-0.19982 0.23082-0.63046zm-0.49093 0q0.1602 0 0.29456-0.0982 0.13608-0.0982 0.1981-0.24288v-0.12747q0-0.3135-0.13609-0.50987-0.13608-0.19638-0.34451-0.19638-0.21015 0-0.33762 0.16192-0.12747 0.1602-0.12747 0.42375 0 0.25667 0.1223 0.42375 0.12403 0.16537 0.33073 0.16537z"/>
    </g>
  </g>
</svg>
